<?xml version="1.0" standalone="no"?>
 <!DOCTYPE svg PUBLIC "-//W3C//DTD SVG 1.1//EN" 
 "http://www.w3.org/Graphics/SVG/1.1/DTD/svg11.dtd"> 
<svg xmlns="http://www.w3.org/2000/svg" version="1.1" 
    width="29.7002cm" height="21.0007cm" viewBox="0 0 116930 82680 ">
<title>SVG Picture created as sch-F.Cu.svg date 2018/12/13 15:39:58 </title>
  <desc>Picture generated by PCBNEW </desc>
<g style="fill:#000000; fill-opacity:1;stroke:#000000; stroke-opacity:1;
stroke-linecap:round; stroke-linejoin:round; "
 transform="translate(0 0) scale(1 1)">
</g>
<g style="fill:#000000; fill-opacity:0.0; 
stroke:#000000; stroke-width:-0.000393701; stroke-opacity:1; 
stroke-linecap:round; stroke-linejoin:round;">
</g>
<g style="fill:#000000; fill-opacity:1.0; 
stroke:#000000; stroke-width:39.3701; stroke-opacity:1; 
stroke-linecap:round; stroke-linejoin:round;">
<rect x="43657" y="41002" width="26211.4" height="19942.5" rx="0" />
</g>
<g style="fill:#FFFFFF; fill-opacity:1.0; 
stroke:#FFFFFF; stroke-width:39.3701; stroke-opacity:1; 
stroke-linecap:round; stroke-linejoin:round;">
</g>
<g style="fill:#FFFFFF; fill-opacity:0.0; 
stroke:#FFFFFF; stroke-width:39.3701; stroke-opacity:1; 
stroke-linecap:round; stroke-linejoin:round;">
</g>
<g style="fill:#FFFFFF; fill-opacity:0.0; 
stroke:#FFFFFF; stroke-width:118.11; stroke-opacity:1; 
stroke-linecap:round; stroke-linejoin:round;">
<path d="M63123 52421
L63123 53012
" />
<path d="M63123 52449
L63067 52421
L62954 52421
L62898 52449
L62870 52477
L62842 52533
L62842 52702
L62870 52758
L62898 52787
L62954 52815
L63067 52815
L63123 52787
" />
<path d="M62589 52815
L62589 52224
" />
<path d="M62336 52815
L62336 52505
L62364 52449
L62420 52421
L62504 52421
L62561 52449
L62589 52477
" />
<path d="M62111 52421
L61970 52815
" />
<path d="M61829 52421
L61970 52815
L62026 52955
L62054 52983
L62111 53012
" />
<path d="M61633 52787
L61576 52815
L61464 52815
L61408 52787
L61380 52730
L61380 52702
L61408 52646
L61464 52618
L61548 52618
L61604 52590
L61633 52533
L61633 52505
L61604 52449
L61548 52421
L61464 52421
L61408 52449
" />
<path d="M61126 52815
L61126 52421
" />
<path d="M61126 52224
L61155 52252
L61126 52280
L61098 52252
L61126 52224
L61126 52280
" />
<path d="M60592 52787
L60648 52815
L60761 52815
L60817 52787
L60845 52758
L60873 52702
L60873 52533
L60845 52477
L60817 52449
L60761 52421
L60648 52421
L60592 52449
" />
<path d="M60086 52815
L60086 52505
L60114 52449
L60170 52421
L60283 52421
L60339 52449
" />
<path d="M60086 52787
L60142 52815
L60283 52815
L60339 52787
L60367 52730
L60367 52674
L60339 52618
L60283 52590
L60142 52590
L60086 52562
" />
<path d="M63095 53819
L63095 53509
L63123 53453
L63179 53425
L63292 53425
L63348 53453
" />
<path d="M63095 53791
L63151 53819
L63292 53819
L63348 53791
L63376 53734
L63376 53678
L63348 53622
L63292 53594
L63151 53594
L63095 53566
" />
<path d="M62561 53791
L62617 53819
L62729 53819
L62786 53791
L62814 53762
L62842 53706
L62842 53537
L62814 53481
L62786 53453
L62729 53425
L62617 53425
L62561 53453
" />
<path d="M62054 53819
L62054 53509
L62083 53453
L62139 53425
L62251 53425
L62308 53453
" />
<path d="M62054 53791
L62111 53819
L62251 53819
L62308 53791
L62336 53734
L62336 53678
L62308 53622
L62251 53594
L62111 53594
L62054 53566
" />
<path d="M61520 53819
L61520 53228
" />
<path d="M61520 53791
L61576 53819
L61689 53819
L61745 53791
L61773 53762
L61801 53706
L61801 53537
L61773 53481
L61745 53453
L61689 53425
L61576 53425
L61520 53453
" />
<path d="M61014 53791
L61070 53819
L61183 53819
L61239 53791
L61267 53734
L61267 53509
L61239 53453
L61183 53425
L61070 53425
L61014 53453
L60986 53509
L60986 53566
L61267 53622
" />
<path d="M60733 53819
L60733 53425
" />
<path d="M60733 53481
L60705 53453
L60648 53425
L60564 53425
L60508 53453
L60480 53509
L60480 53819
" />
<path d="M60480 53509
L60451 53453
L60395 53425
L60311 53425
L60255 53453
L60227 53509
L60227 53819
" />
<path d="M59945 53819
L59945 53425
" />
<path d="M59945 53228
L59973 53256
L59945 53284
L59917 53256
L59945 53228
L59945 53284
" />
<path d="M59411 53819
L59411 53509
L59439 53453
L59495 53425
L59608 53425
L59664 53453
" />
<path d="M59411 53791
L59467 53819
L59608 53819
L59664 53791
L59692 53734
L59692 53678
L59664 53622
L59608 53594
L59467 53594
L59411 53566
" />
</g>
<g style="fill:#FFFFFF; fill-opacity:0.0; 
stroke:#FFFFFF; stroke-width:0; stroke-opacity:1; 
stroke-linecap:round; stroke-linejoin:round;">
</g>
<g style="fill:#FFFFFF; fill-opacity:1.0; 
stroke:#FFFFFF; stroke-width:0; stroke-opacity:1; 
stroke-linecap:round; stroke-linejoin:round;">
<polyline style="fill-rule:evenodd;"
points="56670,45659
57339,45659
57339,44990
56670,44990
56670,45659
" /> 
</g>
<g style="fill:#FFFFFF; fill-opacity:1.0; 
stroke:#FFFFFF; stroke-width:669.291; stroke-opacity:1; 
stroke-linecap:round; stroke-linejoin:round;">
</g>
<g style="fill:#FFFFFF; fill-opacity:0.0; 
stroke:#FFFFFF; stroke-width:669.291; stroke-opacity:1; 
stroke-linecap:round; stroke-linejoin:round;">
<path d="M56005 45325
L56005 45325
" />
<path d="M55005 45325
L55005 45325
" />
<path d="M54005 45325
L54005 45325
" />
<path d="M53005 45325
L53005 45325
" />
<path d="M52005 45325
L52005 45325
" />
</g>
<g style="fill:#FFFFFF; fill-opacity:0.0; 
stroke:#FFFFFF; stroke-width:0; stroke-opacity:1; 
stroke-linecap:round; stroke-linejoin:round;">
</g>
<g style="fill:#FFFFFF; fill-opacity:1.0; 
stroke:#FFFFFF; stroke-width:0; stroke-opacity:1; 
stroke-linecap:round; stroke-linejoin:round;">
<polyline style="fill-rule:evenodd;"
points="49020,53390
49020,54059
49689,54059
49689,53390
49020,53390
" /> 
</g>
<g style="fill:#FFFFFF; fill-opacity:1.0; 
stroke:#FFFFFF; stroke-width:669.291; stroke-opacity:1; 
stroke-linecap:round; stroke-linejoin:round;">
</g>
<g style="fill:#FFFFFF; fill-opacity:0.0; 
stroke:#FFFFFF; stroke-width:669.291; stroke-opacity:1; 
stroke-linecap:round; stroke-linejoin:round;">
<path d="M49355 52725
L49355 52725
" />
<path d="M49355 51725
L49355 51725
" />
<path d="M49355 50725
L49355 50725
" />
</g>
<g style="fill:#FFFFFF; fill-opacity:0.0; 
stroke:#FFFFFF; stroke-width:0; stroke-opacity:1; 
stroke-linecap:round; stroke-linejoin:round;">
</g>
<g style="fill:#FFFFFF; fill-opacity:1.0; 
stroke:#FFFFFF; stroke-width:0; stroke-opacity:1; 
stroke-linecap:round; stroke-linejoin:round;">
<polyline style="fill-rule:evenodd;"
points="47595,50984
48264,50984
48264,50315
47595,50315
47595,50984
" /> 
</g>
<g style="fill:#FFFFFF; fill-opacity:1.0; 
stroke:#FFFFFF; stroke-width:669.291; stroke-opacity:1; 
stroke-linecap:round; stroke-linejoin:round;">
</g>
<g style="fill:#FFFFFF; fill-opacity:0.0; 
stroke:#FFFFFF; stroke-width:669.291; stroke-opacity:1; 
stroke-linecap:round; stroke-linejoin:round;">
<path d="M47930 49650
L47930 49650
" />
</g>
<g style="fill:#FFFFFF; fill-opacity:0.0; 
stroke:#FFFFFF; stroke-width:0; stroke-opacity:1; 
stroke-linecap:round; stroke-linejoin:round;">
</g>
<g style="fill:#FFFFFF; fill-opacity:1.0; 
stroke:#FFFFFF; stroke-width:0; stroke-opacity:1; 
stroke-linecap:round; stroke-linejoin:round;">
<polyline style="fill-rule:evenodd;"
points="59465,47360
59465,47989
60094,47989
60094,47360
59465,47360
" /> 
<circle cx="60764.3" cy="47675" r="314.961" /> 
</g>
<g style="fill:#FFFFFF; fill-opacity:1.0; 
stroke:#FFFFFF; stroke-width:39.3701; stroke-opacity:1; 
stroke-linecap:round; stroke-linejoin:round;">
</g>
<g style="fill:#FFFFFF; fill-opacity:1.0; 
stroke:#FFFFFF; stroke-width:0; stroke-opacity:1; 
stroke-linecap:round; stroke-linejoin:round;">
<polyline style="fill-rule:evenodd;"
points="59420,45440
59420,46109
60089,46109
60089,45440
59420,45440
" /> 
</g>
<g style="fill:#FFFFFF; fill-opacity:1.0; 
stroke:#FFFFFF; stroke-width:669.291; stroke-opacity:1; 
stroke-linecap:round; stroke-linejoin:round;">
</g>
<g style="fill:#FFFFFF; fill-opacity:0.0; 
stroke:#FFFFFF; stroke-width:669.291; stroke-opacity:1; 
stroke-linecap:round; stroke-linejoin:round;">
<path d="M60755 45775
L60755 45775
" />
</g>
<g style="fill:#FFFFFF; fill-opacity:0.0; 
stroke:#FFFFFF; stroke-width:0; stroke-opacity:1; 
stroke-linecap:round; stroke-linejoin:round;">
</g>
<g style="fill:#FFFFFF; fill-opacity:1.0; 
stroke:#FFFFFF; stroke-width:0; stroke-opacity:1; 
stroke-linecap:round; stroke-linejoin:round;">
<polyline style="fill-rule:evenodd;"
points="47650,48463
47642,48464
47633,48466
47625,48469
47618,48473
47610,48477
47604,48482
47597,48488
47592,48494
47587,48501
47582,48508
47579,48516
47576,48524
47574,48532
47573,48540
47572,48549
47572,48750
47573,48759
47574,48767
47576,48775
47579,48783
47582,48791
47587,48798
47592,48805
47597,48811
47604,48817
47610,48822
47618,48826
47625,48830
47633,48833
47642,48835
47650,48836
47658,48837
47831,48837
47839,48836
47847,48835
47856,48833
47864,48830
47871,48826
47878,48822
47885,48817
47891,48811
47897,48805
47902,48798
47907,48791
47910,48783
47913,48775
47915,48767
47916,48759
47917,48750
47917,48549
47916,48540
47915,48532
47913,48524
47910,48516
47907,48508
47902,48501
47897,48494
47891,48488
47885,48482
47878,48477
47871,48473
47864,48469
47856,48466
47847,48464
47839,48463
47831,48462
47658,48462
47650,48463
" /> 
<polyline style="fill-rule:evenodd;"
points="48270,48463
48262,48464
48253,48466
48245,48469
48238,48473
48231,48477
48224,48482
48218,48488
48212,48494
48207,48501
48202,48508
48199,48516
48196,48524
48194,48532
48193,48540
48192,48549
48192,48750
48193,48759
48194,48767
48196,48775
48199,48783
48202,48791
48207,48798
48212,48805
48218,48811
48224,48817
48231,48822
48238,48826
48245,48830
48253,48833
48262,48835
48270,48836
48278,48837
48451,48837
48459,48836
48467,48835
48476,48833
48484,48830
48491,48826
48499,48822
48505,48817
48512,48811
48517,48805
48522,48798
48527,48791
48530,48783
48533,48775
48535,48767
48536,48759
48537,48750
48537,48549
48536,48540
48535,48532
48533,48524
48530,48516
48527,48508
48522,48501
48517,48494
48512,48488
48505,48482
48499,48477
48491,48473
48484,48469
48476,48466
48467,48464
48459,48463
48451,48462
48278,48462
48270,48463
" /> 
<polyline style="fill-rule:evenodd;"
points="49770,44713
49762,44714
49753,44716
49745,44719
49738,44723
49731,44727
49724,44732
49718,44738
49712,44744
49707,44751
49702,44758
49699,44766
49696,44774
49694,44782
49693,44790
49692,44799
49692,45000
49693,45009
49694,45017
49696,45025
49699,45033
49702,45041
49707,45048
49712,45055
49718,45061
49724,45067
49731,45072
49738,45076
49745,45080
49753,45083
49762,45085
49770,45086
49778,45087
49951,45087
49959,45086
49967,45085
49976,45083
49984,45080
49991,45076
49999,45072
50005,45067
50012,45061
50017,45055
50022,45048
50027,45041
50030,45033
50033,45025
50035,45017
50036,45009
50037,45000
50037,44799
50036,44790
50035,44782
50033,44774
50030,44766
50027,44758
50022,44751
50017,44744
50012,44738
50005,44732
49999,44727
49991,44723
49984,44719
49976,44716
49967,44714
49959,44713
49951,44712
49778,44712
49770,44713
" /> 
<polyline style="fill-rule:evenodd;"
points="49150,44713
49142,44714
49133,44716
49125,44719
49118,44723
49110,44727
49104,44732
49097,44738
49092,44744
49087,44751
49082,44758
49079,44766
49076,44774
49074,44782
49073,44790
49072,44799
49072,45000
49073,45009
49074,45017
49076,45025
49079,45033
49082,45041
49087,45048
49092,45055
49097,45061
49104,45067
49110,45072
49118,45076
49125,45080
49133,45083
49142,45085
49150,45086
49158,45087
49331,45087
49339,45086
49347,45085
49356,45083
49364,45080
49371,45076
49378,45072
49385,45067
49391,45061
49397,45055
49402,45048
49407,45041
49410,45033
49413,45025
49415,45017
49416,45009
49417,45000
49417,44799
49416,44790
49415,44782
49413,44774
49410,44766
49407,44758
49402,44751
49397,44744
49391,44738
49385,44732
49378,44727
49371,44723
49364,44719
49356,44716
49347,44714
49339,44713
49331,44712
49158,44712
49150,44713
" /> 
<polyline style="fill-rule:evenodd;"
points="55381,49334
55375,49334
55370,49336
55364,49338
55359,49340
55354,49343
55350,49347
55346,49350
55342,49355
55338,49359
55335,49364
55333,49369
55331,49375
55330,49380
55329,49386
55329,49391
55329,49508
55329,49513
55330,49519
55331,49524
55333,49530
55335,49535
55338,49540
55342,49544
55346,49549
55350,49552
55354,49556
55359,49559
55364,49561
55370,49563
55375,49565
55381,49565
55387,49566
55522,49566
55528,49565
55534,49565
55539,49563
55545,49561
55550,49559
55555,49556
55559,49552
55563,49549
55567,49544
55571,49540
55574,49535
55576,49530
55578,49524
55579,49519
55580,49513
55580,49508
55580,49391
55580,49386
55579,49380
55578,49375
55576,49369
55574,49364
55571,49359
55567,49355
55563,49350
55559,49347
55555,49343
55550,49340
55545,49338
55539,49336
55534,49334
55528,49334
55522,49333
55387,49333
55381,49334
" /> 
<polyline style="fill-rule:evenodd;"
points="55381,48952
55375,48953
55370,48954
55364,48956
55359,48958
55354,48961
55350,48965
55346,48968
55342,48973
55338,48977
55335,48982
55333,48987
55331,48993
55330,48998
55329,49004
55329,49010
55329,49126
55329,49131
55330,49137
55331,49143
55333,49148
55335,49153
55338,49158
55342,49163
55346,49167
55350,49171
55354,49174
55359,49177
55364,49179
55370,49181
55375,49183
55381,49183
55387,49184
55522,49184
55528,49183
55534,49183
55539,49181
55545,49179
55550,49177
55555,49174
55559,49171
55563,49167
55567,49163
55571,49158
55574,49153
55576,49148
55578,49143
55579,49137
55580,49131
55580,49126
55580,49010
55580,49004
55579,48998
55578,48993
55576,48987
55574,48982
55571,48977
55567,48973
55563,48968
55559,48965
55555,48961
55550,48958
55545,48956
55539,48954
55534,48953
55528,48952
55522,48951
55387,48951
55381,48952
" /> 
<polyline style="fill-rule:evenodd;"
points="51650,52124
51644,52125
51639,52126
51633,52128
51628,52130
51623,52133
51619,52137
51614,52141
51611,52145
51607,52149
51604,52154
51602,52159
51600,52165
51599,52170
51598,52176
51597,52182
51597,52317
51598,52323
51599,52329
51600,52334
51602,52340
51604,52345
51607,52350
51611,52354
51614,52358
51619,52362
51623,52366
51628,52369
51633,52371
51639,52373
51644,52374
51650,52375
51655,52375
51772,52375
51777,52375
51783,52374
51788,52373
51794,52371
51799,52369
51804,52366
51808,52362
51813,52358
51817,52354
51820,52350
51823,52345
51825,52340
51827,52334
51829,52329
51829,52323
51830,52317
51830,52182
51829,52176
51829,52170
51827,52165
51825,52159
51823,52154
51820,52149
51817,52145
51813,52141
51808,52137
51804,52133
51799,52130
51794,52128
51788,52126
51783,52125
51777,52124
51772,52124
51655,52124
51650,52124
" /> 
<polyline style="fill-rule:evenodd;"
points="52032,52124
52026,52125
52021,52126
52015,52128
52010,52130
52005,52133
52001,52137
51996,52141
51992,52145
51989,52149
51986,52154
51984,52159
51982,52165
51980,52170
51980,52176
51979,52182
51979,52317
51980,52323
51980,52329
51982,52334
51984,52340
51986,52345
51989,52350
51992,52354
51996,52358
52001,52362
52005,52366
52010,52369
52015,52371
52021,52373
52026,52374
52032,52375
52037,52375
52154,52375
52159,52375
52165,52374
52170,52373
52176,52371
52181,52369
52186,52366
52190,52362
52195,52358
52198,52354
52202,52350
52205,52345
52207,52340
52209,52334
52210,52329
52211,52323
52212,52317
52212,52182
52211,52176
52210,52170
52209,52165
52207,52159
52205,52154
52202,52149
52198,52145
52195,52141
52190,52137
52186,52133
52181,52130
52176,52128
52170,52126
52165,52125
52159,52124
52154,52124
52037,52124
52032,52124
" /> 
<polyline style="fill-rule:evenodd;"
points="55556,49784
55550,49784
55545,49786
55539,49788
55534,49790
55529,49793
55525,49797
55521,49800
55517,49805
55513,49809
55510,49814
55508,49819
55506,49825
55505,49830
55504,49836
55504,49841
55504,49958
55504,49963
55505,49969
55506,49974
55508,49980
55510,49985
55513,49990
55517,49994
55521,49999
55525,50002
55529,50006
55534,50009
55539,50011
55545,50013
55550,50015
55556,50015
55562,50016
55697,50016
55703,50015
55709,50015
55714,50013
55720,50011
55725,50009
55730,50006
55734,50002
55738,49999
55742,49994
55746,49990
55749,49985
55751,49980
55753,49974
55754,49969
55755,49963
55755,49958
55755,49841
55755,49836
55754,49830
55753,49825
55751,49819
55749,49814
55746,49809
55742,49805
55738,49800
55734,49797
55730,49793
55725,49790
55720,49788
55714,49786
55709,49784
55703,49784
55697,49783
55562,49783
55556,49784
" /> 
<polyline style="fill-rule:evenodd;"
points="55556,50166
55550,50166
55545,50168
55539,50170
55534,50172
55529,50175
55525,50178
55521,50182
55517,50186
55513,50191
55510,50196
55508,50201
55506,50206
55505,50212
55504,50218
55504,50223
55504,50339
55504,50345
55505,50351
55506,50356
55508,50362
55510,50367
55513,50372
55517,50376
55521,50381
55525,50384
55529,50388
55534,50391
55539,50393
55545,50395
55550,50396
55556,50397
55562,50398
55697,50398
55703,50397
55709,50396
55714,50395
55720,50393
55725,50391
55730,50388
55734,50384
55738,50381
55742,50376
55746,50372
55749,50367
55751,50362
55753,50356
55754,50351
55755,50345
55755,50339
55755,50223
55755,50218
55754,50212
55753,50206
55751,50201
55749,50196
55746,50191
55742,50186
55738,50182
55734,50178
55730,50175
55725,50172
55720,50170
55714,50168
55709,50166
55703,50166
55697,50165
55562,50165
55556,50166
" /> 
<polyline style="fill-rule:evenodd;"
points="55381,48500
55375,48500
55370,48502
55364,48504
55359,48506
55354,48509
55350,48512
55346,48516
55342,48521
55338,48525
55335,48530
55333,48535
55331,48541
55330,48546
55329,48552
55329,48557
55329,48674
55329,48679
55330,48685
55331,48690
55333,48696
55335,48701
55338,48706
55342,48710
55346,48715
55350,48718
55354,48722
55359,48725
55364,48727
55370,48729
55375,48730
55381,48731
55387,48732
55522,48732
55528,48731
55534,48730
55539,48729
55545,48727
55550,48725
55555,48722
55559,48718
55563,48715
55567,48710
55571,48706
55574,48701
55576,48696
55578,48690
55579,48685
55580,48679
55580,48674
55580,48557
55580,48552
55579,48546
55578,48541
55576,48535
55574,48530
55571,48525
55567,48521
55563,48516
55559,48512
55555,48509
55550,48506
55545,48504
55539,48502
55534,48500
55528,48500
55522,48499
55387,48499
55381,48500
" /> 
<polyline style="fill-rule:evenodd;"
points="55381,48118
55375,48119
55370,48120
55364,48122
55359,48124
55354,48127
55350,48131
55346,48134
55342,48139
55338,48143
55335,48148
55333,48153
55331,48159
55330,48164
55329,48170
55329,48175
55329,48292
55329,48297
55330,48303
55331,48308
55333,48314
55335,48319
55338,48324
55342,48328
55346,48333
55350,48337
55354,48340
55359,48343
55364,48345
55370,48347
55375,48349
55381,48349
55387,48350
55522,48350
55528,48349
55534,48349
55539,48347
55545,48345
55550,48343
55555,48340
55559,48337
55563,48333
55567,48328
55571,48324
55574,48319
55576,48314
55578,48308
55579,48303
55580,48297
55580,48292
55580,48175
55580,48170
55579,48164
55578,48159
55576,48153
55574,48148
55571,48143
55567,48139
55563,48134
55559,48131
55555,48127
55550,48124
55545,48122
55539,48120
55534,48119
55528,48118
55522,48117
55387,48117
55381,48118
" /> 
<polyline style="fill-rule:evenodd;"
points="50431,48193
50425,48194
50420,48195
50414,48197
50409,48199
50404,48202
50400,48206
50396,48209
50392,48214
50388,48218
50385,48223
50383,48228
50381,48234
50380,48239
50379,48245
50379,48250
50379,48367
50379,48372
50380,48378
50381,48383
50383,48389
50385,48394
50388,48399
50392,48403
50396,48408
50400,48412
50404,48415
50409,48418
50414,48420
50420,48422
50425,48424
50431,48424
50437,48425
50572,48425
50578,48424
50584,48424
50589,48422
50595,48420
50600,48418
50605,48415
50609,48412
50613,48408
50617,48403
50621,48399
50624,48394
50626,48389
50628,48383
50629,48378
50630,48372
50630,48367
50630,48250
50630,48245
50629,48239
50628,48234
50626,48228
50624,48223
50621,48218
50617,48214
50613,48209
50609,48206
50605,48202
50600,48199
50595,48197
50589,48195
50584,48194
50578,48193
50572,48192
50437,48192
50431,48193
" /> 
<polyline style="fill-rule:evenodd;"
points="50431,48575
50425,48575
50420,48577
50414,48579
50409,48581
50404,48584
50400,48587
50396,48591
50392,48596
50388,48600
50385,48605
50383,48610
50381,48616
50380,48621
50379,48627
50379,48632
50379,48749
50379,48754
50380,48760
50381,48765
50383,48771
50385,48776
50388,48781
50392,48785
50396,48790
50400,48793
50404,48797
50409,48800
50414,48802
50420,48804
50425,48805
50431,48806
50437,48807
50572,48807
50578,48806
50584,48805
50589,48804
50595,48802
50600,48800
50605,48797
50609,48793
50613,48790
50617,48785
50621,48781
50624,48776
50626,48771
50628,48765
50629,48760
50630,48754
50630,48749
50630,48632
50630,48627
50629,48621
50628,48616
50626,48610
50624,48605
50621,48600
50617,48596
50613,48591
50609,48587
50605,48584
50600,48581
50595,48579
50589,48577
50584,48575
50578,48575
50572,48574
50437,48574
50431,48575
" /> 
<polyline style="fill-rule:evenodd;"
points="54406,47493
54400,47494
54395,47495
54389,47497
54384,47499
54379,47502
54375,47506
54371,47509
54367,47514
54363,47518
54360,47523
54358,47528
54356,47534
54355,47539
54354,47545
54354,47550
54354,47667
54354,47672
54355,47678
54356,47683
54358,47689
54360,47694
54363,47699
54367,47703
54371,47708
54375,47712
54379,47715
54384,47718
54389,47720
54395,47722
54400,47724
54406,47724
54412,47725
54547,47725
54553,47724
54559,47724
54564,47722
54570,47720
54575,47718
54580,47715
54584,47712
54588,47708
54592,47703
54596,47699
54599,47694
54601,47689
54603,47683
54604,47678
54605,47672
54605,47667
54605,47550
54605,47545
54604,47539
54603,47534
54601,47528
54599,47523
54596,47518
54592,47514
54588,47509
54584,47506
54580,47502
54575,47499
54570,47497
54564,47495
54559,47494
54553,47493
54547,47492
54412,47492
54406,47493
" /> 
<polyline style="fill-rule:evenodd;"
points="54406,47875
54400,47875
54395,47877
54389,47879
54384,47881
54379,47884
54375,47887
54371,47891
54367,47896
54363,47900
54360,47905
54358,47910
54356,47916
54355,47921
54354,47927
54354,47932
54354,48049
54354,48054
54355,48060
54356,48065
54358,48071
54360,48076
54363,48081
54367,48085
54371,48090
54375,48093
54379,48097
54384,48100
54389,48102
54395,48104
54400,48105
54406,48106
54412,48107
54547,48107
54553,48106
54559,48105
54564,48104
54570,48102
54575,48100
54580,48097
54584,48093
54588,48090
54592,48085
54596,48081
54599,48076
54601,48071
54603,48065
54604,48060
54605,48054
54605,48049
54605,47932
54605,47927
54604,47921
54603,47916
54601,47910
54599,47905
54596,47900
54592,47896
54588,47891
54584,47887
54580,47884
54575,47881
54570,47879
54564,47877
54559,47875
54553,47875
54547,47874
54412,47874
54406,47875
" /> 
<circle cx="58430" cy="54665.7" r="314.961" /> 
</g>
<g style="fill:#FFFFFF; fill-opacity:1.0; 
stroke:#FFFFFF; stroke-width:39.3701; stroke-opacity:1; 
stroke-linecap:round; stroke-linejoin:round;">
</g>
<g style="fill:#FFFFFF; fill-opacity:1.0; 
stroke:#FFFFFF; stroke-width:0; stroke-opacity:1; 
stroke-linecap:round; stroke-linejoin:round;">
<polyline style="fill-rule:evenodd;"
points="58115,55964
58744,55964
58744,55335
58115,55335
58115,55964
" /> 
<polyline style="fill-rule:evenodd;"
points="47525,44899
47519,44900
47514,44901
47508,44903
47503,44905
47498,44908
47494,44912
47489,44916
47486,44920
47482,44924
47479,44929
47477,44934
47475,44940
47474,44945
47473,44951
47472,44957
47472,45092
47473,45098
47474,45104
47475,45109
47477,45115
47479,45120
47482,45125
47486,45129
47489,45133
47494,45137
47498,45141
47503,45144
47508,45146
47514,45148
47519,45149
47525,45150
47530,45150
47647,45150
47652,45150
47658,45149
47663,45148
47669,45146
47674,45144
47679,45141
47683,45137
47688,45133
47692,45129
47695,45125
47698,45120
47700,45115
47702,45109
47704,45104
47704,45098
47705,45092
47705,44957
47704,44951
47704,44945
47702,44940
47700,44934
47698,44929
47695,44924
47692,44920
47688,44916
47683,44912
47679,44908
47674,44905
47669,44903
47663,44901
47658,44900
47652,44899
47647,44899
47530,44899
47525,44899
" /> 
<polyline style="fill-rule:evenodd;"
points="47907,44899
47901,44900
47896,44901
47890,44903
47885,44905
47880,44908
47876,44912
47871,44916
47867,44920
47864,44924
47861,44929
47859,44934
47857,44940
47855,44945
47855,44951
47854,44957
47854,45092
47855,45098
47855,45104
47857,45109
47859,45115
47861,45120
47864,45125
47867,45129
47871,45133
47876,45137
47880,45141
47885,45144
47890,45146
47896,45148
47901,45149
47907,45150
47912,45150
48029,45150
48034,45150
48040,45149
48045,45148
48051,45146
48056,45144
48061,45141
48065,45137
48070,45133
48073,45129
48077,45125
48080,45120
48082,45115
48084,45109
48085,45104
48086,45098
48087,45092
48087,44957
48086,44951
48085,44945
48084,44940
48082,44934
48080,44929
48077,44924
48073,44920
48070,44916
48065,44912
48061,44908
48056,44905
48051,44903
48045,44901
48040,44900
48034,44899
48029,44899
47912,44899
47907,44899
" /> 
<polyline style="fill-rule:evenodd;"
points="46400,47120
46400,47829
47109,47829
47109,47120
46400,47120
" /> 
<circle cx="47755" cy="47475" r="354.331" /> 
</g>
<g style="fill:#FFFFFF; fill-opacity:1.0; 
stroke:#FFFFFF; stroke-width:39.3701; stroke-opacity:1; 
stroke-linecap:round; stroke-linejoin:round;">
</g>
<g style="fill:#FFFFFF; fill-opacity:1.0; 
stroke:#FFFFFF; stroke-width:0; stroke-opacity:1; 
stroke-linecap:round; stroke-linejoin:round;">
<polyline style="fill-rule:evenodd;"
points="47914,45540
47245,45540
47245,46209
47914,46209
47914,45540
" /> 
</g>
<g style="fill:#FFFFFF; fill-opacity:1.0; 
stroke:#FFFFFF; stroke-width:669.291; stroke-opacity:1; 
stroke-linecap:round; stroke-linejoin:round;">
</g>
<g style="fill:#FFFFFF; fill-opacity:0.0; 
stroke:#FFFFFF; stroke-width:669.291; stroke-opacity:1; 
stroke-linecap:round; stroke-linejoin:round;">
<path d="M48580 45875
L48580 45875
" />
<path d="M49580 45875
L49580 45875
" />
<path d="M50580 45875
L50580 45875
" />
</g>
<g style="fill:#FFFFFF; fill-opacity:0.0; 
stroke:#FFFFFF; stroke-width:0; stroke-opacity:1; 
stroke-linecap:round; stroke-linejoin:round;">
</g>
<g style="fill:#FFFFFF; fill-opacity:1.0; 
stroke:#FFFFFF; stroke-width:0; stroke-opacity:1; 
stroke-linecap:round; stroke-linejoin:round;">
<polyline style="fill-rule:evenodd;"
points="56225,47134
55934,47134
55934,48079
56225,48079
56225,47134
" /> 
<polyline style="fill-rule:evenodd;"
points="56225,48670
55934,48670
55934,49615
56225,49615
56225,48670
" /> 
<polyline style="fill-rule:evenodd;"
points="57089,52959
57089,52290
56420,52290
56420,52959
57089,52959
" /> 
</g>
<g style="fill:#FFFFFF; fill-opacity:1.0; 
stroke:#FFFFFF; stroke-width:669.291; stroke-opacity:1; 
stroke-linecap:round; stroke-linejoin:round;">
</g>
<g style="fill:#FFFFFF; fill-opacity:0.0; 
stroke:#FFFFFF; stroke-width:669.291; stroke-opacity:1; 
stroke-linecap:round; stroke-linejoin:round;">
<path d="M55755 52625
L55755 52625
" />
<path d="M56755 53625
L56755 53625
" />
<path d="M55755 53625
L55755 53625
" />
<path d="M56755 54625
L56755 54625
" />
<path d="M55755 54625
L55755 54625
" />
<path d="M56755 55625
L56755 55625
" />
<path d="M55755 55625
L55755 55625
" />
</g>
<g style="fill:#FFFFFF; fill-opacity:0.0; 
stroke:#FFFFFF; stroke-width:0; stroke-opacity:1; 
stroke-linecap:round; stroke-linejoin:round;">
</g>
<g style="fill:#FFFFFF; fill-opacity:1.0; 
stroke:#FFFFFF; stroke-width:0; stroke-opacity:1; 
stroke-linecap:round; stroke-linejoin:round;">
<polyline style="fill-rule:evenodd;"
points="54873,48666
54873,48568
54361,48568
54361,48666
54873,48666
" /> 
<polyline style="fill-rule:evenodd;"
points="54873,48863
54873,48764
54361,48764
54361,48863
54873,48863
" /> 
<polyline style="fill-rule:evenodd;"
points="54873,49060
54873,48961
54361,48961
54361,49060
54873,49060
" /> 
<polyline style="fill-rule:evenodd;"
points="54873,49257
54873,49158
54361,49158
54361,49257
54873,49257
" /> 
<polyline style="fill-rule:evenodd;"
points="54873,49453
54873,49355
54361,49355
54361,49453
54873,49453
" /> 
<polyline style="fill-rule:evenodd;"
points="54873,49650
54873,49552
54361,49552
54361,49650
54873,49650
" /> 
<polyline style="fill-rule:evenodd;"
points="54873,49847
54873,49749
54361,49749
54361,49847
54873,49847
" /> 
<polyline style="fill-rule:evenodd;"
points="54873,50044
54873,49946
54361,49946
54361,50044
54873,50044
" /> 
<polyline style="fill-rule:evenodd;"
points="54873,50241
54873,50142
54361,50142
54361,50241
54873,50241
" /> 
<polyline style="fill-rule:evenodd;"
points="54873,50438
54873,50339
54361,50339
54361,50438
54873,50438
" /> 
<polyline style="fill-rule:evenodd;"
points="54873,50635
54873,50536
54361,50536
54361,50635
54873,50635
" /> 
<polyline style="fill-rule:evenodd;"
points="54873,50831
54873,50733
54361,50733
54361,50831
54873,50831
" /> 
<polyline style="fill-rule:evenodd;"
points="53938,51668
54036,51668
54036,51156
53938,51156
53938,51668
" /> 
<polyline style="fill-rule:evenodd;"
points="53741,51668
53840,51668
53840,51156
53741,51156
53741,51668
" /> 
<polyline style="fill-rule:evenodd;"
points="53544,51668
53643,51668
53643,51156
53544,51156
53544,51668
" /> 
<polyline style="fill-rule:evenodd;"
points="53347,51668
53446,51668
53446,51156
53347,51156
53347,51668
" /> 
<polyline style="fill-rule:evenodd;"
points="53151,51668
53249,51668
53249,51156
53151,51156
53151,51668
" /> 
<polyline style="fill-rule:evenodd;"
points="52954,51668
53052,51668
53052,51156
52954,51156
52954,51668
" /> 
<polyline style="fill-rule:evenodd;"
points="52757,51668
52855,51668
52855,51156
52757,51156
52757,51668
" /> 
<polyline style="fill-rule:evenodd;"
points="52560,51668
52658,51668
52658,51156
52560,51156
52560,51668
" /> 
<polyline style="fill-rule:evenodd;"
points="52363,51668
52462,51668
52462,51156
52363,51156
52363,51668
" /> 
<polyline style="fill-rule:evenodd;"
points="52166,51668
52265,51668
52265,51156
52166,51156
52166,51668
" /> 
<polyline style="fill-rule:evenodd;"
points="51969,51668
52068,51668
52068,51156
51969,51156
51969,51668
" /> 
<polyline style="fill-rule:evenodd;"
points="51773,51668
51871,51668
51871,51156
51773,51156
51773,51668
" /> 
<polyline style="fill-rule:evenodd;"
points="51448,50831
51448,50733
50936,50733
50936,50831
51448,50831
" /> 
<polyline style="fill-rule:evenodd;"
points="51448,50635
51448,50536
50936,50536
50936,50635
51448,50635
" /> 
<polyline style="fill-rule:evenodd;"
points="51448,50438
51448,50339
50936,50339
50936,50438
51448,50438
" /> 
<polyline style="fill-rule:evenodd;"
points="51448,50241
51448,50142
50936,50142
50936,50241
51448,50241
" /> 
<polyline style="fill-rule:evenodd;"
points="51448,50044
51448,49946
50936,49946
50936,50044
51448,50044
" /> 
<polyline style="fill-rule:evenodd;"
points="51448,49847
51448,49749
50936,49749
50936,49847
51448,49847
" /> 
<polyline style="fill-rule:evenodd;"
points="51448,49650
51448,49552
50936,49552
50936,49650
51448,49650
" /> 
<polyline style="fill-rule:evenodd;"
points="51448,49453
51448,49355
50936,49355
50936,49453
51448,49453
" /> 
<polyline style="fill-rule:evenodd;"
points="51448,49257
51448,49158
50936,49158
50936,49257
51448,49257
" /> 
<polyline style="fill-rule:evenodd;"
points="51448,49060
51448,48961
50936,48961
50936,49060
51448,49060
" /> 
<polyline style="fill-rule:evenodd;"
points="51448,48863
51448,48764
50936,48764
50936,48863
51448,48863
" /> 
<polyline style="fill-rule:evenodd;"
points="51448,48666
51448,48568
50936,48568
50936,48666
51448,48666
" /> 
<polyline style="fill-rule:evenodd;"
points="51773,48243
51871,48243
51871,47731
51773,47731
51773,48243
" /> 
<polyline style="fill-rule:evenodd;"
points="51969,48243
52068,48243
52068,47731
51969,47731
51969,48243
" /> 
<polyline style="fill-rule:evenodd;"
points="52166,48243
52265,48243
52265,47731
52166,47731
52166,48243
" /> 
<polyline style="fill-rule:evenodd;"
points="52363,48243
52462,48243
52462,47731
52363,47731
52363,48243
" /> 
<polyline style="fill-rule:evenodd;"
points="52560,48243
52658,48243
52658,47731
52560,47731
52560,48243
" /> 
<polyline style="fill-rule:evenodd;"
points="52757,48243
52855,48243
52855,47731
52757,47731
52757,48243
" /> 
<polyline style="fill-rule:evenodd;"
points="52954,48243
53052,48243
53052,47731
52954,47731
52954,48243
" /> 
<polyline style="fill-rule:evenodd;"
points="53151,48243
53249,48243
53249,47731
53151,47731
53151,48243
" /> 
<polyline style="fill-rule:evenodd;"
points="53347,48243
53446,48243
53446,47731
53347,47731
53347,48243
" /> 
<polyline style="fill-rule:evenodd;"
points="53544,48243
53643,48243
53643,47731
53544,47731
53544,48243
" /> 
<polyline style="fill-rule:evenodd;"
points="53741,48243
53840,48243
53840,47731
53741,47731
53741,48243
" /> 
<polyline style="fill-rule:evenodd;"
points="53938,48243
54036,48243
54036,47731
53938,47731
53938,48243
" /> 
<polyline style="fill-rule:evenodd;"
points="59176,49526
59176,51023
59963,51023
59963,49526
59176,49526
" /> 
<polyline style="fill-rule:evenodd;"
points="56696,49979
56696,50570
57483,50570
57483,49979
56696,49979
" /> 
<polyline style="fill-rule:evenodd;"
points="56696,49074
56696,49664
57483,49664
57483,49074
56696,49074
" /> 
<polyline style="fill-rule:evenodd;"
points="56696,50885
56696,51475
57483,51475
57483,50885
56696,50885
" /> 
</g>
<g style="fill:#FFFFFF; fill-opacity:1.0; 
stroke:#FFFFFF; stroke-width:98.4252; stroke-opacity:1; 
stroke-linecap:round; stroke-linejoin:round;">
</g>
<g style="fill:#FFFFFF; fill-opacity:0.0; 
stroke:#FFFFFF; stroke-width:98.4252; stroke-opacity:1; 
stroke-linecap:round; stroke-linejoin:round;">
<path d="M52019 52173
L52019 51412
" />
<path d="M52095 52250
L52019 52173
" />
<path d="M55534 49995
L55630 49900
" />
<path d="M54617 49995
L55534 49995
" />
<path d="M55455 49725
L55630 49900
" />
<path d="M55455 49450
L55455 49725
" />
<path d="M55620 48234
L55455 48234
" />
<path d="M55780 48234
L55620 48234
" />
<path d="M56080 47934
L55780 48234
" />
<path d="M56080 47607
L56080 47934
" />
<path d="M56171 49900
L56530 49541
" />
<path d="M55630 49900
L56171 49900
" />
<path d="M56530 49541
L56530 48628
" />
<path d="M56089 55290
L55755 55625
" />
<path d="M56340 55290
L56089 55290
" />
<path d="M56468 55162
L56340 55290
" />
<path d="M56902 55162
L56468 55162
" />
<path d="M57217 54847
L56902 55162
" />
<path d="M57217 51701
L57217 54847
" />
<path d="M57089 51574
L57217 51701
" />
<path d="M57089 51180
L57089 51574
" />
</g>
<g style="fill:#FFFFFF; fill-opacity:0.0; 
stroke:#FFFFFF; stroke-width:590.551; stroke-opacity:1; 
stroke-linecap:round; stroke-linejoin:round;">
<path d="M55281 55625
L55755 55625
" />
</g>
<g style="fill:#FFFFFF; fill-opacity:0.0; 
stroke:#FFFFFF; stroke-width:98.4252; stroke-opacity:1; 
stroke-linecap:round; stroke-linejoin:round;">
<path d="M55755 55625
L56455 56325
" />
<path d="M56455 56325
L58905 56325
" />
<path d="M58905 56325
L59355 55875
" />
<path d="M59355 55875
L59355 54925
" />
<path d="M59095 54665
L58430 54665
" />
<path d="M59355 54925
L59095 54665
" />
<path d="M50628 48814
L50505 48690
" />
<path d="M51192 48814
L50628 48814
" />
<path d="M48830 44900
L49244 44900
" />
<path d="M48580 45875
L48580 45150
" />
<path d="M48580 45150
L48830 44900
" />
<path d="M47970 45265
L47970 45025
" />
<path d="M48580 45875
L47970 45265
" />
<path d="M56080 48178
L56080 47607
" />
<path d="M56530 48628
L56080 48178
" />
<path d="M51630 50880
L51630 48897
" />
<path d="M51630 48897
L51546 48814
" />
<path d="M52095 52250
L52095 52609
" />
<path d="M52095 52609
L52030 52675
" />
<path d="M52030 52675
L51530 52675
" />
<path d="M51530 52675
L51230 52375
" />
<path d="M51546 48814
L51192 48814
" />
<path d="M51230 52375
L51230 51280
" />
<path d="M51230 51280
L51630 50880
" />
<path d="M53200 48341
L53283 48425
" />
<path d="M53200 47987
L53200 48341
" />
<path d="M53790 48341
L53790 47987
" />
<path d="M53707 48425
L53790 48341
" />
<path d="M53283 48425
L53707 48425
" />
<path d="M53790 47987
L53790 47633
" />
<path d="M54124 47418
L54005 47418
" />
<path d="M54314 47609
L54124 47418
" />
<path d="M54480 47609
L54314 47609
" />
<path d="M53790 47633
L54005 47418
" />
</g>
<g style="fill:#FFFFFF; fill-opacity:0.0; 
stroke:#FFFFFF; stroke-width:590.551; stroke-opacity:1; 
stroke-linecap:round; stroke-linejoin:round;">
<path d="M60755 47665
L60764 47675
" />
<path d="M60755 45775
L60755 47665
" />
</g>
<g style="fill:#FFFFFF; fill-opacity:0.0; 
stroke:#FFFFFF; stroke-width:98.4252; stroke-opacity:1; 
stroke-linecap:round; stroke-linejoin:round;">
<path d="M56005 49068
L56080 49142
" />
<path d="M55455 49068
L56005 49068
" />
<path d="M55289 49068
L55455 49068
" />
<path d="M55201 49156
L55289 49068
" />
<path d="M55201 49553
L55201 49156
" />
<path d="M54956 49798
L55201 49553
" />
<path d="M54617 49798
L54956 49798
" />
<path d="M55453 48617
L55455 48615
" />
<path d="M54617 48617
L55453 48617
" />
<path d="M51192 48617
L51546 48617
" />
<path d="M54263 48617
L54617 48617
" />
<path d="M53987 48341
L54263 48617
" />
<path d="M53987 47987
L53987 48341
" />
<path d="M51822 52141
L51714 52250
" />
<path d="M51822 51412
L51822 52141
" />
<path d="M51822 48759
L51680 48617
" />
<path d="M51546 48617
L51680 48617
" />
<path d="M54971 50192
L54617 50192
" />
<path d="M55374 50192
L54971 50192
" />
<path d="M55464 50281
L55374 50192
" />
<path d="M55630 50281
L55464 50281
" />
<path d="M52105 50192
L51822 50475
" />
<path d="M51822 51412
L51822 50475
" />
<path d="M51822 50475
L51822 48759
" />
<path d="M55605 50306
L55630 50281
" />
<path d="M55636 50275
L55630 50281
" />
<path d="M57089 50275
L55636 50275
" />
</g>
<g style="fill:#FFFFFF; fill-opacity:0.0; 
stroke:#FFFFFF; stroke-width:590.551; stroke-opacity:1; 
stroke-linecap:round; stroke-linejoin:round;">
<path d="M58405 55625
L58430 55650
" />
<path d="M58155 51374
L58155 50275
" />
<path d="M57680 51849
L58155 51374
" />
<path d="M57680 55625
L57680 51849
" />
<path d="M56755 55625
L57680 55625
" />
<path d="M58155 50275
L57089 50275
" />
<path d="M57680 55625
L58405 55625
" />
<path d="M59570 50275
L58155 50275
" />
</g>
<g style="fill:#FFFFFF; fill-opacity:0.0; 
stroke:#FFFFFF; stroke-width:98.4252; stroke-opacity:1; 
stroke-linecap:round; stroke-linejoin:round;">
<path d="M51503 48440
L51680 48617
" />
<path d="M50636 48440
L51503 48440
" />
<path d="M50505 48309
L50636 48440
" />
</g>
<g style="fill:#FFFFFF; fill-opacity:0.0; 
stroke:#FFFFFF; stroke-width:196.85; stroke-opacity:1; 
stroke-linecap:round; stroke-linejoin:round;">
<path d="M47580 45034
L47589 45025
" />
<path d="M47580 45875
L47580 45034
" />
</g>
<g style="fill:#FFFFFF; fill-opacity:0.0; 
stroke:#FFFFFF; stroke-width:98.4252; stroke-opacity:1; 
stroke-linecap:round; stroke-linejoin:round;">
<path d="M51680 48617
L54055 48617
" />
<path d="M54055 48617
L54617 48617
" />
<path d="M54055 50192
L52105 50192
" />
</g>
<g style="fill:#FFFFFF; fill-opacity:0.0; 
stroke:#FFFFFF; stroke-width:196.85; stroke-opacity:1; 
stroke-linecap:round; stroke-linejoin:round;">
<path d="M54055 50192
L54055 48617
" />
</g>
<g style="fill:#FFFFFF; fill-opacity:0.0; 
stroke:#FFFFFF; stroke-width:98.4252; stroke-opacity:1; 
stroke-linecap:round; stroke-linejoin:round;">
<path d="M54617 50192
L54055 50192
" />
<path d="M53991 47990
L53987 47987
" />
<path d="M54480 47990
L53991 47990
" />
</g>
<g style="fill:#FFFFFF; fill-opacity:0.0; 
stroke:#FFFFFF; stroke-width:196.85; stroke-opacity:1; 
stroke-linecap:round; stroke-linejoin:round;">
<path d="M60905 50275
L59570 50275
" />
<path d="M47705 43725
L61205 43725
" />
<path d="M47589 43840
L47705 43725
" />
<path d="M47589 45025
L47589 43840
" />
<path d="M61205 43725
L62255 44775
" />
<path d="M62255 44775
L62255 48925
" />
<path d="M62255 48925
L60905 50275
" />
</g>
<g style="fill:#FFFFFF; fill-opacity:0.0; 
stroke:#FFFFFF; stroke-width:98.4252; stroke-opacity:1; 
stroke-linecap:round; stroke-linejoin:round;">
<path d="M47744 47485
L47755 47475
" />
<path d="M47744 48650
L47744 47485
" />
<path d="M51192 49011
L49916 49011
" />
<path d="M49580 48675
L49580 45875
" />
<path d="M49916 49011
L49580 48675
" />
<path d="M56755 52191
L56755 52625
" />
<path d="M55345 50782
L56755 52191
" />
<path d="M54617 50782
L55345 50782
" />
<path d="M54158 51028
L55420 52290
" />
<path d="M53426 51028
L54158 51028
" />
<path d="M53397 51058
L53426 51028
" />
<path d="M55420 52290
L55755 52625
" />
<path d="M53397 51412
L53397 51058
" />
<path d="M56420 53959
L56755 53625
" />
<path d="M56280 54100
L56420 53959
" />
<path d="M55533 54100
L56280 54100
" />
<path d="M53200 51766
L55533 54100
" />
<path d="M53200 51412
L53200 51766
" />
<path d="M55420 53290
L55755 53625
" />
<path d="M55117 53290
L55420 53290
" />
<path d="M53593 51766
L55117 53290
" />
<path d="M53593 51412
L53593 51766
" />
<path d="M52806 51766
L52806 51412
" />
<path d="M52806 52361
L52806 51766
" />
<path d="M55532 55087
L52806 52361
" />
<path d="M56292 55087
L55532 55087
" />
<path d="M56755 54625
L56292 55087
" />
<path d="M53003 51873
L55755 54625
" />
<path d="M53003 51412
L53003 51873
" />
<path d="M50255 44900
L49865 44900
" />
<path d="M50580 45875
L50580 45225
" />
<path d="M50580 45225
L50255 44900
" />
<path d="M51822 47117
L50580 45875
" />
<path d="M51822 47987
L51822 47117
" />
<path d="M51188 50385
L51192 50388
" />
<path d="M49512 49207
L50838 49207
" />
<path d="M50838 49207
L51192 49207
" />
<path d="M48954 48650
L49512 49207
" />
<path d="M48365 48650
L48954 48650
" />
<path d="M48781 49798
L47930 50650
" />
<path d="M51192 49798
L48781 49798
" />
<path d="M47978 49601
L47930 49650
" />
<path d="M51192 49601
L47978 49601
" />
</g>
<g style="fill:#FFFFFF; fill-opacity:0.0; 
stroke:#FFFFFF; stroke-width:590.551; stroke-opacity:1; 
stroke-linecap:round; stroke-linejoin:round;">
<path d="M59755 47650
L59780 47675
" />
<path d="M59755 45775
L59755 47650
" />
<path d="M58784 47675
L57089 49369
" />
<path d="M59780 47675
L58784 47675
" />
</g>
<g style="fill:#FFFFFF; fill-opacity:0.0; 
stroke:#FFFFFF; stroke-width:98.4252; stroke-opacity:1; 
stroke-linecap:round; stroke-linejoin:round;">
<path d="M49788 53725
L49355 53725
" />
<path d="M50838 52675
L49788 53725
" />
<path d="M50838 50930
L50838 52675
" />
<path d="M50985 50782
L50838 50930
" />
<path d="M51192 50782
L50985 50782
" />
<path d="M51192 50585
L50838 50585
" />
<path d="M50155 51925
L49355 52725
" />
<path d="M50155 51268
L50155 51925
" />
<path d="M50838 50585
L50155 51268
" />
<path d="M50691 50388
L49355 51725
" />
<path d="M51192 50388
L50691 50388
" />
<path d="M49887 50192
L49355 50725
" />
<path d="M51192 50192
L49887 50192
" />
<path d="M52339 45659
L52005 45325
" />
<path d="M52412 45732
L52339 45659
" />
<path d="M52412 47987
L52412 45732
" />
<path d="M52609 45720
L53005 45325
" />
<path d="M52609 47987
L52609 45720
" />
<path d="M52806 46523
L54005 45325
" />
<path d="M52806 47987
L52806 46523
" />
<path d="M53003 47326
L55005 45325
" />
<path d="M53003 47987
L53003 47326
" />
<path d="M53397 47987
L53397 47257
" />
<path d="M53397 47257
L54455 46200
" />
<path d="M55130 46200
L56005 45325
" />
<path d="M54455 46200
L55130 46200
" />
<path d="M56385 46377
L57005 45758
" />
<path d="M54796 46377
L56385 46377
" />
<path d="M57005 45758
L57005 45325
" />
<path d="M53593 47579
L54796 46377
" />
<path d="M53593 47987
L53593 47579
" />
</g>
<g style="fill:#FFFFFF; fill-opacity:1.0; 
stroke:#FFFFFF; stroke-width:100; stroke-opacity:1; 
stroke-linecap:round; stroke-linejoin:round;">
<polyline style="fill-rule:evenodd;"
points="45934,56370
63525,56370
63525,54580
58999,54580
58988,54804
58923,54962
58826,54991
58500,54665
58826,54339
58923,54368
58999,54580
63525,54580
63525,54351
58961,54351
58961,51843
63525,51843
63525,44775
62610,44775
62603,44809
62603,48890
62610,48925
62583,49060
62525,49147
62525,49147
62506,49176
62477,49195
61175,50497
61156,50526
61127,50545
61127,50545
61100,50563
61040,50603
60939,50623
60939,50623
60905,50630
60870,50623
60218,50623
60218,51023
60199,51120
60144,51203
60061,51258
59963,51277
59176,51277
59078,51258
58996,51203
58940,51120
58921,51023
58921,50820
58700,50820
58700,51321
58710,51374
58675,51551
58668,51587
58548,51767
58502,51798
58225,52075
58225,54138
58344,54096
58569,54106
58726,54172
58756,54268
58430,54595
58424,54589
58353,54660
58359,54665
58353,54671
58424,54742
58430,54736
58756,55062
58750,55081
58842,55099
58925,55154
58980,55237
58999,55335
58999,55964
58980,56062
58925,56145
58842,56200
58744,56219
58115,56219
58017,56200
57972,56170
57733,56170
57680,56180
57626,56170
56991,56170
56983,56175
56812,56209
56697,56209
56526,56175
56333,56046
56254,55928
56101,56095
55895,56192
55805,56145
55805,55675
55705,55675
55705,56145
55614,56192
55408,56095
55254,55926
55187,55765
55235,55675
55705,55675
55805,55675
55812,55675
55812,55575
55805,55575
55805,55567
55705,55567
55705,55575
55235,55575
55187,55484
55254,55323
55297,55275
52615,52593
52590,52576
52524,52477
52507,52390
52507,52390
52501,52362
52462,52362
52462,52425
52424,52517
52353,52587
52261,52625
52208,52625
52145,52563
52145,52300
52399,52300
52462,52362
52501,52362
52501,52361
52507,52331
52507,51914
52462,51923
52365,51923
52424,51982
52462,52074
52462,52137
52399,52200
52145,52200
52145,52192
52117,52192
52104,52258
52085,52287
52085,52317
52061,52437
52045,52460
52045,52563
51983,52625
51930,52625
51886,52608
51772,52630
51655,52630
51536,52607
51434,52539
51366,52437
51343,52317
51343,52182
51366,52062
51434,51960
51523,51901
51523,51693
51518,51668
51518,51156
51523,51132
51523,51071
51448,51086
51137,51086
51137,52645
51143,52675
51119,52791
51078,52853
51053,52890
51028,52907
50020,53915
50003,53940
49944,53980
49944,54059
49925,54157
49869,54239
49787,54295
49689,54314
49020,54314
48922,54295
48840,54239
48784,54157
48765,54059
48765,53390
48784,53292
48840,53210
48922,53154
48940,53151
48933,53146
48804,52953
48758,52725
48804,52496
48933,52303
49050,52225
48933,52146
48804,51953
48758,51725
48804,51496
48933,51303
49050,51225
48933,51146
48804,50953
48758,50725
48804,50496
48933,50303
49126,50174
49297,50140
49412,50140
49499,50157
49559,50097
48905,50097
48519,50483
48519,50984
48500,51082
48444,51164
48362,51220
48264,51239
47595,51239
47497,51220
47415,51164
47359,51082
47340,50984
47340,50315
47359,50217
47415,50135
47497,50079
47515,50076
47508,50071
47379,49878
47333,49650
47379,49421
47508,49228
47701,49099
47738,49091
47658,49091
47528,49065
47417,48992
47343,48881
47317,48750
47317,48549
47343,48418
47417,48307
47445,48289
47445,48001
47412,47987
47343,47917
47321,47970
47250,48041
47159,48079
46867,48079
46805,48016
46805,47525
46705,47525
46705,48016
46642,48079
46350,48079
46259,48041
46188,47970
46150,47879
46150,47587
46213,47525
46705,47525
46805,47525
46812,47525
46812,47425
46805,47425
46805,46933
46705,46933
46705,47425
46213,47425
46150,47362
46150,47070
46188,46979
46259,46908
46350,46870
46642,46870
46705,46933
46805,46933
46867,46870
47159,46870
47250,46908
47321,46979
47343,47032
47412,46962
47634,46870
47875,46870
48097,46962
48267,47132
48359,47354
48359,47595
48267,47817
48097,47987
48044,48009
48044,48289
48055,48296
48148,48234
48278,48208
48451,48208
48581,48234
48692,48307
48720,48350
48924,48350
48954,48344
48983,48350
48983,48350
49071,48368
49170,48434
49186,48459
49280,48553
49280,46378
49158,46296
49074,46170
49050,46221
48881,46375
48720,46442
48630,46394
48630,45925
48637,45925
48637,45825
48630,45825
48630,45355
48720,45307
48881,45374
49050,45528
49074,45579
49158,45453
49347,45327
49294,45274
49294,44950
49194,44950
49194,45274
49132,45337
49022,45337
48931,45298
48860,45228
48822,45136
48822,45012
48885,44950
49194,44950
49294,44950
49302,44950
49302,44850
49294,44850
49294,44525
49194,44525
49194,44850
48885,44850
48884,44849
48337,44849
48337,44912
48274,44975
48020,44975
48020,44711
48083,44649
48136,44649
48228,44687
48299,44757
48337,44849
48884,44849
48822,44787
48822,44663
48860,44571
48931,44501
49022,44462
49132,44462
49194,44525
49294,44525
49357,44462
49466,44462
49558,44501
49584,44526
49648,44484
49778,44458
49951,44458
50081,44484
50192,44557
50220,44600
50225,44600
50255,44594
50284,44600
50284,44600
50371,44618
50371,44618
50371,44618
50445,44667
50445,44667
50470,44684
50487,44709
50770,44992
50795,45009
50812,45034
50812,45034
50861,45108
50885,45225
50879,45254
50879,45371
51001,45453
51130,45646
51176,45875
51147,46019
52013,46884
52038,46901
52054,46926
52054,46926
52104,47000
52113,47048
52113,45899
52062,45909
51947,45909
51776,45875
51583,45746
51454,45553
51408,45325
51454,45096
51583,44903
51776,44774
51947,44740
52062,44740
52233,44774
52426,44903
52505,45020
52583,44903
52776,44774
52947,44740
53062,44740
53233,44774
53426,44903
53505,45020
53583,44903
53776,44774
53947,44740
54062,44740
54233,44774
54426,44903
54505,45020
54583,44903
54776,44774
54947,44740
55062,44740
55233,44774
55426,44903
55505,45020
55583,44903
55776,44774
55947,44740
56062,44740
56233,44774
56426,44903
56431,44910
56434,44892
56490,44810
56572,44754
56670,44735
57339,44735
57437,44754
57519,44810
57575,44892
57594,44990
57594,45659
57575,45757
57519,45839
57437,45895
57339,45914
57260,45914
57220,45973
57195,45990
56618,46567
56601,46592
56502,46659
56415,46676
56415,46676
56385,46682
56356,46676
54920,46676
54353,47242
54367,47242
54430,47305
54430,47559
54422,47559
54422,47619
54547,47619
54667,47643
54690,47659
54793,47659
54855,47721
54855,47774
54838,47818
54860,47932
54860,48049
54837,48168
54769,48270
54705,48313
54873,48313
54898,48318
55107,48318
55141,48284
55244,48284
55267,48268
55387,48244
55512,48244
55512,48184
55505,48184
55505,47930
55405,47930
55405,48184
55141,48184
55079,48121
55079,48068
55117,47976
55187,47905
55279,47867
55342,47867
55405,47930
55505,47930
55567,47867
55630,47867
55684,47890
55684,47719
55746,47657
56030,47657
56030,48267
55967,48329
55884,48329
55792,48291
55785,48284
55768,48284
55830,48346
55830,48399
55813,48443
55814,48449
55836,48434
55934,48415
56225,48415
56323,48434
56405,48490
56461,48572
56480,48670
56480,48946
56515,48893
56598,48838
56696,48819
56868,48819
57968,47719
56475,47719
56475,48129
56437,48221
56367,48291
56275,48329
56192,48329
56130,48267
56130,47657
56413,47657
56475,47719
57968,47719
58360,47327
58391,47281
58571,47161
58730,47129
58784,47119
58838,47129
59209,47129
59209,47085
56475,47085
56475,47494
56413,47557
56130,47557
56130,46947
56030,46947
56030,47557
55746,47557
55684,47494
55684,47443
54855,47443
54855,47496
54793,47559
54530,47559
54530,47305
54592,47242
54655,47242
54747,47280
54817,47351
54855,47443
55684,47443
55684,47085
55722,46993
55792,46922
55884,46884
55967,46884
56030,46947
56130,46947
56192,46884
56275,46884
56367,46922
56437,46993
56475,47085
59209,47085
59209,46244
59184,46207
59165,46109
59165,45440
59184,45342
59240,45260
59322,45204
59420,45185
60089,45185
60187,45204
60269,45260
60325,45342
60333,45385
60408,45304
60614,45207
60705,45254
60705,45725
60697,45725
60697,45825
60705,45825
60705,46295
60614,46342
60408,46245
60333,46164
60325,46207
60300,46244
60300,47217
60330,47262
60348,47354
60367,47348
60693,47675
60367,48001
60348,47995
60330,48087
60275,48170
60192,48225
60094,48244
59465,48244
59367,48225
59359,48220
59010,48220
57738,49492
57738,49664
57725,49729
58101,49729
58155,49719
58208,49729
58921,49729
58921,49526
58940,49429
58996,49346
59078,49291
59176,49272
59963,49272
60061,49291
60144,49346
60199,49429
60218,49526
60218,49926
60760,49926
61906,48780
61906,48071
61090,48071
61061,48168
60849,48244
60625,48233
60467,48168
60438,48071
60764,47745
61090,48071
61906,48071
61906,47589
61333,47589
61323,47814
61257,47971
61161,48001
60834,47675
61161,47348
61257,47378
61333,47589
61906,47589
61906,47278
61090,47278
60764,47604
60438,47278
60467,47181
60678,47105
60903,47116
61061,47181
61090,47278
61906,47278
61906,45915
61322,45915
61255,46076
61101,46245
60895,46342
60805,46295
60805,45825
61274,45825
61322,45915
61906,45915
61906,45634
61322,45634
61274,45725
60805,45725
60805,45254
60895,45207
61101,45304
61255,45473
61322,45634
61906,45634
61906,44919
61060,44073
47937,44073
47937,44843
47960,44957
47960,45082
48020,45082
48020,45075
48274,45075
48337,45137
48337,45200
48299,45292
48228,45362
48136,45400
48122,45400
48150,45442
48158,45483
48278,45374
48439,45307
48530,45355
48530,45825
48522,45825
48522,45925
48530,45925
48530,46394
48439,46442
48278,46375
48158,46266
48150,46307
48094,46389
48012,46445
47914,46464
47245,46464
47147,46445
47065,46389
47009,46307
46990,46209
46990,45540
47009,45442
47065,45360
47147,45304
47231,45288
47231,45161
47218,45092
47218,44957
47240,44843
47240,43875
47233,43840
47240,43806
47240,43806
47260,43704
47337,43589
47366,43570
47434,43502
47453,43473
47569,43396
47670,43376
47670,43376
47705,43369
47739,43376
61170,43376
61205,43369
61239,43376
61239,43376
61340,43396
61427,43454
61427,43454
61456,43473
61475,43502
62477,44504
62506,44523
62583,44639
62603,44740
62603,44740
62610,44775
63525,44775
63525,43304
45934,43304
45934,56370
" /> 
<polyline style="fill-rule:evenodd;"
points="55817,50629
55697,50652
55639,50652
56446,51459
56446,51293
56508,51230
57039,51230
57039,51663
56977,51725
56712,51725
56945,51959
56970,51976
57010,52035
57089,52035
57134,52044
57134,51903
57124,51849
57157,51681
57139,51663
57139,51230
57147,51230
57147,51130
57139,51130
57139,51122
57039,51122
57039,51130
56508,51130
56446,51068
56446,50835
56484,50743
56500,50727
56460,50667
56442,50574
55899,50574
55817,50629
" /> 
<polyline style="fill-rule:evenodd;"
points="56405,49795
56323,49850
56225,49870
55934,49870
55836,49850
55835,49850
55680,49850
55680,49842
55580,49842
55580,49850
55572,49850
55572,49910
55697,49910
55817,49934
55840,49950
55943,49950
55969,49975
56442,49975
56460,49882
56500,49822
56460,49762
56453,49724
56405,49795
" /> 
<polyline style="fill-rule:evenodd;"
points="55500,49507
55505,49507
55505,49500
55512,49500
55512,49439
55500,49439
55500,49507
" /> 
<polyline style="fill-rule:evenodd;"
points="50001,46296
49879,46378
49879,48551
50039,48711
50503,48711
50456,48680
50437,48680
50317,48656
50294,48640
50191,48640
50129,48578
50129,48525
50146,48481
50124,48367
50124,48250
50147,48131
50215,48029
50317,47961
50437,47938
50572,47938
50692,47961
50794,48029
50862,48131
50864,48141
51473,48141
51503,48135
51518,48138
51518,47731
51523,47706
51523,47241
50724,46442
50637,46459
50522,46459
50351,46425
50158,46296
50080,46179
50001,46296
" /> 
</g>
<g style="fill:#000000; fill-opacity:1.0; 
stroke:#000000; stroke-width:100; stroke-opacity:1; 
stroke-linecap:round; stroke-linejoin:round;">
</g>
<g style="fill:#000000; fill-opacity:1.0; 
stroke:#000000; stroke-width:0; stroke-opacity:1; 
stroke-linecap:round; stroke-linejoin:round;">
<circle cx="57005" cy="45325" r="68.8976" /> 
</g>
<g style="fill:#000000; fill-opacity:1.0; 
stroke:#000000; stroke-width:39.3701; stroke-opacity:1; 
stroke-linecap:round; stroke-linejoin:round;">
</g>
<g style="fill:#000000; fill-opacity:1.0; 
stroke:#000000; stroke-width:0; stroke-opacity:1; 
stroke-linecap:round; stroke-linejoin:round;">
<circle cx="56005" cy="45325" r="68.8976" /> 
</g>
<g style="fill:#000000; fill-opacity:1.0; 
stroke:#000000; stroke-width:39.3701; stroke-opacity:1; 
stroke-linecap:round; stroke-linejoin:round;">
</g>
<g style="fill:#000000; fill-opacity:1.0; 
stroke:#000000; stroke-width:0; stroke-opacity:1; 
stroke-linecap:round; stroke-linejoin:round;">
<circle cx="55005" cy="45325" r="68.8976" /> 
</g>
<g style="fill:#000000; fill-opacity:1.0; 
stroke:#000000; stroke-width:39.3701; stroke-opacity:1; 
stroke-linecap:round; stroke-linejoin:round;">
</g>
<g style="fill:#000000; fill-opacity:1.0; 
stroke:#000000; stroke-width:0; stroke-opacity:1; 
stroke-linecap:round; stroke-linejoin:round;">
<circle cx="54005" cy="45325" r="68.8976" /> 
</g>
<g style="fill:#000000; fill-opacity:1.0; 
stroke:#000000; stroke-width:39.3701; stroke-opacity:1; 
stroke-linecap:round; stroke-linejoin:round;">
</g>
<g style="fill:#000000; fill-opacity:1.0; 
stroke:#000000; stroke-width:0; stroke-opacity:1; 
stroke-linecap:round; stroke-linejoin:round;">
<circle cx="53005" cy="45325" r="68.8976" /> 
</g>
<g style="fill:#000000; fill-opacity:1.0; 
stroke:#000000; stroke-width:39.3701; stroke-opacity:1; 
stroke-linecap:round; stroke-linejoin:round;">
</g>
<g style="fill:#000000; fill-opacity:1.0; 
stroke:#000000; stroke-width:0; stroke-opacity:1; 
stroke-linecap:round; stroke-linejoin:round;">
<circle cx="52005" cy="45325" r="68.8976" /> 
</g>
<g style="fill:#000000; fill-opacity:1.0; 
stroke:#000000; stroke-width:39.3701; stroke-opacity:1; 
stroke-linecap:round; stroke-linejoin:round;">
</g>
<g style="fill:#000000; fill-opacity:1.0; 
stroke:#000000; stroke-width:0; stroke-opacity:1; 
stroke-linecap:round; stroke-linejoin:round;">
<circle cx="49355" cy="53725" r="68.8976" /> 
</g>
<g style="fill:#000000; fill-opacity:1.0; 
stroke:#000000; stroke-width:39.3701; stroke-opacity:1; 
stroke-linecap:round; stroke-linejoin:round;">
</g>
<g style="fill:#000000; fill-opacity:1.0; 
stroke:#000000; stroke-width:0; stroke-opacity:1; 
stroke-linecap:round; stroke-linejoin:round;">
<circle cx="49355" cy="52725" r="68.8976" /> 
</g>
<g style="fill:#000000; fill-opacity:1.0; 
stroke:#000000; stroke-width:39.3701; stroke-opacity:1; 
stroke-linecap:round; stroke-linejoin:round;">
</g>
<g style="fill:#000000; fill-opacity:1.0; 
stroke:#000000; stroke-width:0; stroke-opacity:1; 
stroke-linecap:round; stroke-linejoin:round;">
<circle cx="49355" cy="51725" r="68.8976" /> 
</g>
<g style="fill:#000000; fill-opacity:1.0; 
stroke:#000000; stroke-width:39.3701; stroke-opacity:1; 
stroke-linecap:round; stroke-linejoin:round;">
</g>
<g style="fill:#000000; fill-opacity:1.0; 
stroke:#000000; stroke-width:0; stroke-opacity:1; 
stroke-linecap:round; stroke-linejoin:round;">
<circle cx="49355" cy="50725" r="68.8976" /> 
</g>
<g style="fill:#000000; fill-opacity:1.0; 
stroke:#000000; stroke-width:39.3701; stroke-opacity:1; 
stroke-linecap:round; stroke-linejoin:round;">
</g>
<g style="fill:#000000; fill-opacity:1.0; 
stroke:#000000; stroke-width:0; stroke-opacity:1; 
stroke-linecap:round; stroke-linejoin:round;">
<circle cx="47930" cy="50650" r="68.8976" /> 
</g>
<g style="fill:#000000; fill-opacity:1.0; 
stroke:#000000; stroke-width:39.3701; stroke-opacity:1; 
stroke-linecap:round; stroke-linejoin:round;">
</g>
<g style="fill:#000000; fill-opacity:1.0; 
stroke:#000000; stroke-width:0; stroke-opacity:1; 
stroke-linecap:round; stroke-linejoin:round;">
<circle cx="47930" cy="49650" r="68.8976" /> 
</g>
<g style="fill:#000000; fill-opacity:1.0; 
stroke:#000000; stroke-width:39.3701; stroke-opacity:1; 
stroke-linecap:round; stroke-linejoin:round;">
</g>
<g style="fill:#000000; fill-opacity:1.0; 
stroke:#000000; stroke-width:0; stroke-opacity:1; 
stroke-linecap:round; stroke-linejoin:round;">
<circle cx="59780" cy="47675" r="68.8976" /> 
</g>
<g style="fill:#000000; fill-opacity:1.0; 
stroke:#000000; stroke-width:39.3701; stroke-opacity:1; 
stroke-linecap:round; stroke-linejoin:round;">
</g>
<g style="fill:#000000; fill-opacity:1.0; 
stroke:#000000; stroke-width:0; stroke-opacity:1; 
stroke-linecap:round; stroke-linejoin:round;">
<circle cx="60764.3" cy="47675" r="68.8976" /> 
</g>
<g style="fill:#000000; fill-opacity:1.0; 
stroke:#000000; stroke-width:39.3701; stroke-opacity:1; 
stroke-linecap:round; stroke-linejoin:round;">
</g>
<g style="fill:#000000; fill-opacity:1.0; 
stroke:#000000; stroke-width:0; stroke-opacity:1; 
stroke-linecap:round; stroke-linejoin:round;">
<circle cx="59755" cy="45775" r="68.8976" /> 
</g>
<g style="fill:#000000; fill-opacity:1.0; 
stroke:#000000; stroke-width:39.3701; stroke-opacity:1; 
stroke-linecap:round; stroke-linejoin:round;">
</g>
<g style="fill:#000000; fill-opacity:1.0; 
stroke:#000000; stroke-width:0; stroke-opacity:1; 
stroke-linecap:round; stroke-linejoin:round;">
<circle cx="60755" cy="45775" r="68.8976" /> 
</g>
<g style="fill:#000000; fill-opacity:1.0; 
stroke:#000000; stroke-width:39.3701; stroke-opacity:1; 
stroke-linecap:round; stroke-linejoin:round;">
</g>
<g style="fill:#000000; fill-opacity:1.0; 
stroke:#000000; stroke-width:0; stroke-opacity:1; 
stroke-linecap:round; stroke-linejoin:round;">
<circle cx="58430" cy="54665.7" r="68.8976" /> 
</g>
<g style="fill:#000000; fill-opacity:1.0; 
stroke:#000000; stroke-width:39.3701; stroke-opacity:1; 
stroke-linecap:round; stroke-linejoin:round;">
</g>
<g style="fill:#000000; fill-opacity:1.0; 
stroke:#000000; stroke-width:0; stroke-opacity:1; 
stroke-linecap:round; stroke-linejoin:round;">
<circle cx="58430" cy="55650" r="68.8976" /> 
</g>
<g style="fill:#000000; fill-opacity:1.0; 
stroke:#000000; stroke-width:39.3701; stroke-opacity:1; 
stroke-linecap:round; stroke-linejoin:round;">
</g>
<g style="fill:#000000; fill-opacity:1.0; 
stroke:#000000; stroke-width:0; stroke-opacity:1; 
stroke-linecap:round; stroke-linejoin:round;">
<circle cx="46755" cy="47475" r="68.8976" /> 
</g>
<g style="fill:#000000; fill-opacity:1.0; 
stroke:#000000; stroke-width:39.3701; stroke-opacity:1; 
stroke-linecap:round; stroke-linejoin:round;">
</g>
<g style="fill:#000000; fill-opacity:1.0; 
stroke:#000000; stroke-width:0; stroke-opacity:1; 
stroke-linecap:round; stroke-linejoin:round;">
<circle cx="47755" cy="47475" r="68.8976" /> 
</g>
<g style="fill:#000000; fill-opacity:1.0; 
stroke:#000000; stroke-width:39.3701; stroke-opacity:1; 
stroke-linecap:round; stroke-linejoin:round;">
</g>
<g style="fill:#000000; fill-opacity:1.0; 
stroke:#000000; stroke-width:0; stroke-opacity:1; 
stroke-linecap:round; stroke-linejoin:round;">
<circle cx="47580" cy="45875" r="68.8976" /> 
</g>
<g style="fill:#000000; fill-opacity:1.0; 
stroke:#000000; stroke-width:39.3701; stroke-opacity:1; 
stroke-linecap:round; stroke-linejoin:round;">
</g>
<g style="fill:#000000; fill-opacity:1.0; 
stroke:#000000; stroke-width:0; stroke-opacity:1; 
stroke-linecap:round; stroke-linejoin:round;">
<circle cx="48580" cy="45875" r="68.8976" /> 
</g>
<g style="fill:#000000; fill-opacity:1.0; 
stroke:#000000; stroke-width:39.3701; stroke-opacity:1; 
stroke-linecap:round; stroke-linejoin:round;">
</g>
<g style="fill:#000000; fill-opacity:1.0; 
stroke:#000000; stroke-width:0; stroke-opacity:1; 
stroke-linecap:round; stroke-linejoin:round;">
<circle cx="49580" cy="45875" r="68.8976" /> 
</g>
<g style="fill:#000000; fill-opacity:1.0; 
stroke:#000000; stroke-width:39.3701; stroke-opacity:1; 
stroke-linecap:round; stroke-linejoin:round;">
</g>
<g style="fill:#000000; fill-opacity:1.0; 
stroke:#000000; stroke-width:0; stroke-opacity:1; 
stroke-linecap:round; stroke-linejoin:round;">
<circle cx="50580" cy="45875" r="68.8976" /> 
</g>
<g style="fill:#000000; fill-opacity:1.0; 
stroke:#000000; stroke-width:39.3701; stroke-opacity:1; 
stroke-linecap:round; stroke-linejoin:round;">
</g>
<g style="fill:#000000; fill-opacity:1.0; 
stroke:#000000; stroke-width:0; stroke-opacity:1; 
stroke-linecap:round; stroke-linejoin:round;">
<circle cx="56755" cy="52625" r="68.8976" /> 
</g>
<g style="fill:#000000; fill-opacity:1.0; 
stroke:#000000; stroke-width:39.3701; stroke-opacity:1; 
stroke-linecap:round; stroke-linejoin:round;">
</g>
<g style="fill:#000000; fill-opacity:1.0; 
stroke:#000000; stroke-width:0; stroke-opacity:1; 
stroke-linecap:round; stroke-linejoin:round;">
<circle cx="55755" cy="52625" r="68.8976" /> 
</g>
<g style="fill:#000000; fill-opacity:1.0; 
stroke:#000000; stroke-width:39.3701; stroke-opacity:1; 
stroke-linecap:round; stroke-linejoin:round;">
</g>
<g style="fill:#000000; fill-opacity:1.0; 
stroke:#000000; stroke-width:0; stroke-opacity:1; 
stroke-linecap:round; stroke-linejoin:round;">
<circle cx="56755" cy="53625" r="68.8976" /> 
</g>
<g style="fill:#000000; fill-opacity:1.0; 
stroke:#000000; stroke-width:39.3701; stroke-opacity:1; 
stroke-linecap:round; stroke-linejoin:round;">
</g>
<g style="fill:#000000; fill-opacity:1.0; 
stroke:#000000; stroke-width:0; stroke-opacity:1; 
stroke-linecap:round; stroke-linejoin:round;">
<circle cx="55755" cy="53625" r="68.8976" /> 
</g>
<g style="fill:#000000; fill-opacity:1.0; 
stroke:#000000; stroke-width:39.3701; stroke-opacity:1; 
stroke-linecap:round; stroke-linejoin:round;">
</g>
<g style="fill:#000000; fill-opacity:1.0; 
stroke:#000000; stroke-width:0; stroke-opacity:1; 
stroke-linecap:round; stroke-linejoin:round;">
<circle cx="56755" cy="54625" r="68.8976" /> 
</g>
<g style="fill:#000000; fill-opacity:1.0; 
stroke:#000000; stroke-width:39.3701; stroke-opacity:1; 
stroke-linecap:round; stroke-linejoin:round;">
</g>
<g style="fill:#000000; fill-opacity:1.0; 
stroke:#000000; stroke-width:0; stroke-opacity:1; 
stroke-linecap:round; stroke-linejoin:round;">
<circle cx="55755" cy="54625" r="68.8976" /> 
</g>
<g style="fill:#000000; fill-opacity:1.0; 
stroke:#000000; stroke-width:39.3701; stroke-opacity:1; 
stroke-linecap:round; stroke-linejoin:round;">
</g>
<g style="fill:#000000; fill-opacity:1.0; 
stroke:#000000; stroke-width:0; stroke-opacity:1; 
stroke-linecap:round; stroke-linejoin:round;">
<circle cx="56755" cy="55625" r="68.8976" /> 
</g>
<g style="fill:#000000; fill-opacity:1.0; 
stroke:#000000; stroke-width:39.3701; stroke-opacity:1; 
stroke-linecap:round; stroke-linejoin:round;">
</g>
<g style="fill:#000000; fill-opacity:1.0; 
stroke:#000000; stroke-width:0; stroke-opacity:1; 
stroke-linecap:round; stroke-linejoin:round;">
<circle cx="55755" cy="55625" r="68.8976" /> 
</g>
<g style="fill:#000000; fill-opacity:1.0; 
stroke:#000000; stroke-width:39.3701; stroke-opacity:1; 
stroke-linecap:round; stroke-linejoin:round;">
</g>
<g style="fill:#FFFFFF; fill-opacity:1.0; 
stroke:#FFFFFF; stroke-width:39.3701; stroke-opacity:1; 
stroke-linecap:round; stroke-linejoin:round;">
</g> 
</svg>
